<svg width="21" height="21" viewBox="0 0 21 21" fill="none" xmlns="http://www.w3.org/2000/svg">
<path d="M8.75 8.75C9.23325 8.75 9.625 9.14175 9.625 9.625V14.875C9.625 15.3582 9.23325 15.75 8.75 15.75C8.26675 15.75 7.875 15.3582 7.875 14.875V9.625C7.875 9.14175 8.26675 8.75 8.75 8.75Z" fill="black"/>
<path d="M13.125 14.875V9.625C13.125 9.14175 12.7332 8.75 12.25 8.75C11.7668 8.75 11.375 9.14175 11.375 9.625V14.875C11.375 15.3582 11.7668 15.75 12.25 15.75C12.7332 15.75 13.125 15.3582 13.125 14.875Z" fill="black"/>
<path fill-rule="evenodd" clip-rule="evenodd" d="M6.125 4.375V3.5C6.125 2.80381 6.40156 2.13613 6.89385 1.64384C7.38613 1.15156 8.05381 0.875 8.75 0.875H12.25C12.9462 0.875 13.6139 1.15156 14.1062 1.64384C14.5984 2.13613 14.875 2.80381 14.875 3.5V4.375H18.375C18.8582 4.375 19.25 4.76675 19.25 5.25C19.25 5.73325 18.8582 6.125 18.375 6.125H17.5V17.5C17.5 18.1962 17.2234 18.8639 16.7312 19.3562C16.2389 19.8484 15.5712 20.125 14.875 20.125H6.125C5.42881 20.125 4.76113 19.8484 4.26884 19.3562C3.77656 18.8639 3.5 18.1962 3.5 17.5V6.125H2.625C2.14175 6.125 1.75 5.73325 1.75 5.25C1.75 4.76675 2.14175 4.375 2.625 4.375H6.125ZM8.13128 2.88128C8.29538 2.71719 8.51794 2.625 8.75 2.625H12.25C12.4821 2.625 12.7046 2.71719 12.8687 2.88128C13.0328 3.04538 13.125 3.26794 13.125 3.5V4.375H7.875V3.5C7.875 3.26794 7.96719 3.04538 8.13128 2.88128ZM5.25 6.125V17.5C5.25 17.7321 5.34219 17.9546 5.50628 18.1187C5.67038 18.2828 5.89294 18.375 6.125 18.375H14.875C15.1071 18.375 15.3296 18.2828 15.4937 18.1187C15.6578 17.9546 15.75 17.7321 15.75 17.5V6.125H5.25Z" fill="black"/>
</svg>
